<?xml version="1.0" encoding="utf-8"?>
<!-- Generator: Adobe Illustrator 24.0.2, SVG Export Plug-In . SVG Version: 6.00 Build 0)  -->
<svg version="1.1" xmlns="http://www.w3.org/2000/svg" xmlns:xlink="http://www.w3.org/1999/xlink" x="0px" y="0px"
	 viewBox="0 0 100 20.3" style="enable-background:new 0 0 100 20.3;" xml:space="preserve">
<style type="text/css">
	.st0{fill:#010202;}
</style>
<g id="unterfüllung">
</g>
<g id="Logo">
	<g>
		<g>
			<path class="st0" d="M9.9,17.6c0-3.6-7.1-2.1-7.1-3.4c0-0.8,1.9-0.8,2.4-0.8c2.2,0,4.4,0.8,4.4,0.8v-2.1
				c-0.2-0.1-1.7-0.7-4.4-0.7c-1.9,0-4.7,0.4-4.7,2.9c0,3.5,6.7,2,6.7,3.3c0,0.7-1.5,0.6-2,0.6c-2.5,0-4.5-0.9-4.5-0.9v2.2
				c0.2,0.1,1.8,0.7,4.5,0.7C6.9,20.3,9.9,19.9,9.9,17.6z"/>
			<path class="st0" d="M19.7,19.6V17c-0.7,0.7-1.9,1.1-3.2,1.1c-2,0-3.5-0.7-3.5-2.3c0-1.5,1.4-2.4,3.5-2.4c1.3,0,2.5,0.4,3.2,1.1
				v-2.4c-0.9-0.4-2-0.7-3.2-0.7c-3.7,0-6,2-6,4.4c0,2.4,2.3,4.4,6,4.4C17.7,20.3,18.8,20,19.7,19.6z"/>
			<polygon class="st0" points="29.7,20.1 29.7,11.7 27.2,11.7 27.2,15.2 23.2,15.2 23.2,11.7 20.7,11.7 20.7,20.1 23.2,20.1 
				23.2,17.2 27.2,17.2 27.2,20.1 			"/>
			<path class="st0" d="M39.9,15.9c0-2-1.4-4.4-4.7-4.4c-3.2,0-4.7,2.4-4.7,4.4c0,2.1,1.4,4.4,4.7,4.4C38.4,20.3,39.9,18,39.9,15.9z
				 M37.6,15.8c0,1.1-0.6,2.4-2.4,2.4c-1.7,0-2.4-1.3-2.4-2.4c0-1.1,0.6-2.4,2.4-2.4C36.9,13.4,37.6,14.7,37.6,15.8z"/>
			<path class="st0" d="M49.9,15.9c0-2-1.4-4.4-4.7-4.4s-4.7,2.4-4.7,4.4c0,2.1,1.4,4.4,4.7,4.4S49.9,18,49.9,15.9z M47.6,15.8
				c0,1.1-0.6,2.4-2.4,2.4c-1.7,0-2.4-1.3-2.4-2.4c0-1.1,0.6-2.4,2.4-2.4C47,13.4,47.6,14.7,47.6,15.8z"/>
			<path class="st0" d="M59.7,13.3v-1.6h-2.2v1.6H59.7z M59.7,15.9v-1.6h-2.2v1.6H59.7z M59.7,20.1V18h-6.5v-6.3h-2.4v8.4H59.7z"/>
			<path class="st0" d="M67.5,13.5c0-1.2-0.8-2-2.3-2c-1.5,0-2.3,0.9-2.3,2c0,1.2,0.8,2,2.3,2C66.7,15.6,67.5,14.7,67.5,13.5z
				 M67.4,17.4v-1.3h-4.3v3.9h1.5v-0.8h2.7v-1.1h-2.7v-0.8H67.4z M66.1,13.5c0,0.5-0.3,0.8-0.9,0.8c-0.6,0-0.9-0.3-0.9-0.8
				c0-0.5,0.4-0.8,0.9-0.8C65.8,12.7,66.1,13,66.1,13.5z"/>
			<path class="st0" d="M80,20.1c-0.2-4.2-1.9-8.4-1.9-8.4h-5.7c0,0-1.7,4.2-1.9,8.4H73c0-0.8,0.1-1.7,0.1-1.7h4.2
				c0,0,0.1,0.9,0.1,1.7H80z M77.1,16.6h-3.8c0.2-1.6,0.7-3,0.7-3h2.4C76.4,13.7,76.9,15.1,77.1,16.6z"/>
			<path class="st0" d="M89.9,14.8c0-2.5-2.5-3.2-4.7-3.2c-1.7,0-4.5,0.1-4.5,0.1v8.4h2.4v-2c0,0,1.1,0,2,0c0.7,1.4,1.6,2.2,3.3,2.2
				c0.8,0,1.3-0.1,1.3-0.1v-1.7c0,0-0.1,0-0.5,0c-0.6,0-1.2-0.1-1.5-0.8C89.2,17.3,89.9,16.2,89.9,14.8z M87.4,14.9
				c0,1-0.7,1.4-2.5,1.4c-1,0-1.9,0-1.9,0v-2.7c0.8,0,1.5,0,1.9,0C86.7,13.5,87.4,13.9,87.4,14.9z"/>
			<path class="st0" d="M99.8,19.7v-2.2c0,0-2.2,0.7-4.4,0.7c-1.2,0-2.3-0.3-2.3-1.4v-1.4h5.4v-2h-5.4v-1.6h-2.4V17
				c0,2.1,1.6,3.3,4.6,3.3C98.3,20.3,99.8,19.7,99.8,19.7z"/>
		</g>
		<g>
			<polygon class="st0" points="9.8,2.3 9.8,0.2 0,0.2 0,2.3 3.7,2.3 3.7,8.6 6.1,8.6 6.1,2.3 			"/>
			<polygon class="st0" points="19.7,8.6 19.7,0.2 17.2,0.2 17.2,3.7 13.1,3.7 13.1,0.2 10.7,0.2 10.7,8.6 13.1,8.6 13.1,5.7 
				17.2,5.7 17.2,8.6 			"/>
			<polygon class="st0" points="29.8,8.6 29.8,6.7 23.1,6.7 23.1,5.4 29.6,5.4 29.6,3.5 23.1,3.5 23.1,2.1 29.7,2.1 29.7,0.2 
				20.7,0.2 20.7,8.6 			"/>
			<path class="st0" d="M42.2,8.2v-4h-2.5v2.5c0,0-0.3,0.1-0.7,0.1c-2.2,0-3.5-0.9-3.5-2.4C35.5,2.6,37.2,2,39,2
				c1,0,2.1,0.3,2.8,0.7V0.5C41,0.2,40,0,39,0c-3.7,0-6,2-6,4.4c0,2.4,2.3,4.4,6,4.4C40.2,8.8,41.3,8.7,42.2,8.2z"/>
			<path class="st0" d="M49.7,1.8V0.2h-2.2v1.6H49.7z M49.7,4.4V2.8h-2.2v1.6H49.7z M49.7,8.6V6.5h-4V0.2h-2.4v8.4H49.7z"/>
			<path class="st0" d="M60,8.6c-0.2-4.2-1.9-8.4-1.9-8.4h-5.7c0,0-1.7,4.2-1.9,8.4H53c0-0.8,0.2-1.7,0.2-1.7h4.2
				c0,0,0.1,0.9,0.1,1.7H60z M57.1,5.1h-3.8c0.2-1.6,0.7-3,0.7-3h2.4C56.4,2.2,56.9,3.6,57.1,5.1z"/>
			<path class="st0" d="M69.9,6.1c0-3.6-7.1-2.1-7.1-3.4c0-0.8,1.9-0.8,2.4-0.8c2.2,0,4.4,0.8,4.4,0.8V0.7C69.4,0.6,67.9,0,65.2,0
				c-1.9,0-4.7,0.4-4.7,2.9c0,3.5,6.7,2,6.7,3.3c0,0.7-1.5,0.6-2,0.6c-2.5,0-4.5-0.9-4.5-0.9v2.2c0.2,0.1,1.8,0.7,4.5,0.7
				C66.9,8.8,69.9,8.4,69.9,6.1z"/>
			<path class="st0" d="M79.7,8.2v-4h-2.5v2.5c0,0-0.3,0.1-0.7,0.1c-2.2,0-3.5-0.9-3.5-2.4C73,2.6,74.7,2,76.5,2
				c1,0,2.1,0.3,2.8,0.7V0.5C78.5,0.2,77.5,0,76.5,0c-3.7,0-6,2-6,4.4c0,2.4,2.3,4.4,6,4.4C77.7,8.8,78.8,8.7,79.7,8.2z"/>
			<path class="st0" d="M89.9,4.4c0-2-1.4-4.4-4.7-4.4s-4.7,2.4-4.7,4.4c0,2.1,1.4,4.4,4.7,4.4S89.9,6.5,89.9,4.4z M87.6,4.3
				c0,1.1-0.6,2.4-2.4,2.4c-1.7,0-2.4-1.3-2.4-2.4c0-1.1,0.6-2.4,2.4-2.4C87,1.9,87.6,3.2,87.6,4.3z"/>
			<path class="st0" d="M100,0.2h-2.5v3.7c0,0.9,0.1,2.2,0.1,2.2s-0.3-1.2-0.7-2l-0.8-1.7h-1.8l-0.7,1.7c-0.4,0.9-0.7,2-0.7,2
				s0-1.3,0-2.2V0.2h-2.5c0,4.7,0.9,8.4,0.9,8.4h2.1l1.7-3.7l1.8,3.7h2.1C99.1,8.6,100,4.9,100,0.2z"/>
		</g>
	</g>
</g>
</svg>
